<mxfile host="65bd71144e">
    <diagram name="Template" id="uAfxqfQsUGy2Adk57U2U">
        <mxGraphModel dx="1840" dy="1675" grid="1" gridSize="10" guides="1" tooltips="1" connect="1" arrows="1" fold="1" page="1" pageScale="1" pageWidth="850" pageHeight="1100" math="0" shadow="0">
            <root>
                <mxCell id="pY8bGKxmVO8cdruROGeC-0"/>
                <mxCell id="pY8bGKxmVO8cdruROGeC-1" parent="pY8bGKxmVO8cdruROGeC-0"/>
                <mxCell id="pY8bGKxmVO8cdruROGeC-2" value="Modelo" style="swimlane;fontStyle=0;childLayout=stackLayout;horizontal=1;startSize=26;fillColor=#ffcc99;horizontalStack=0;resizeParent=1;resizeParentMax=0;resizeLast=0;collapsible=1;marginBottom=0;strokeColor=#36393d;fontColor=#000000;" parent="pY8bGKxmVO8cdruROGeC-1" vertex="1">
                    <mxGeometry x="80" y="100" width="200" height="300" as="geometry"/>
                </mxCell>
                <mxCell id="pY8bGKxmVO8cdruROGeC-3" value="SQL 1" style="text;strokeColor=#36393d;fillColor=#ffcc99;align=left;verticalAlign=top;spacingLeft=4;spacingRight=4;overflow=hidden;rotatable=0;points=[[0,0.5],[1,0.5]];portConstraint=eastwest;fontColor=#000000;" parent="pY8bGKxmVO8cdruROGeC-2" vertex="1">
                    <mxGeometry y="26" width="200" height="26" as="geometry"/>
                </mxCell>
                <mxCell id="pY8bGKxmVO8cdruROGeC-4" value="SQL 2" style="text;strokeColor=#36393d;fillColor=#ffcc99;align=left;verticalAlign=top;spacingLeft=4;spacingRight=4;overflow=hidden;rotatable=0;points=[[0,0.5],[1,0.5]];portConstraint=eastwest;fontColor=#000000;" parent="pY8bGKxmVO8cdruROGeC-2" vertex="1">
                    <mxGeometry y="52" width="200" height="26" as="geometry"/>
                </mxCell>
                <mxCell id="pY8bGKxmVO8cdruROGeC-5" value="SQL 3" style="text;strokeColor=#36393d;fillColor=#ffcc99;align=left;verticalAlign=top;spacingLeft=4;spacingRight=4;overflow=hidden;rotatable=0;points=[[0,0.5],[1,0.5]];portConstraint=eastwest;fontColor=#000000;" parent="pY8bGKxmVO8cdruROGeC-2" vertex="1">
                    <mxGeometry y="78" width="200" height="222" as="geometry"/>
                </mxCell>
                <mxCell id="pY8bGKxmVO8cdruROGeC-6" value="Controlador" style="swimlane;fontStyle=0;childLayout=stackLayout;horizontal=1;startSize=26;fillColor=#cdeb8b;horizontalStack=0;resizeParent=1;resizeParentMax=0;resizeLast=0;collapsible=1;marginBottom=0;strokeColor=#36393d;fontColor=#000000;" parent="pY8bGKxmVO8cdruROGeC-1" vertex="1">
                    <mxGeometry x="410" y="100" width="200" height="300" as="geometry"/>
                </mxCell>
                <mxCell id="pY8bGKxmVO8cdruROGeC-7" value="f(1)" style="text;strokeColor=#36393d;fillColor=#cdeb8b;align=left;verticalAlign=top;spacingLeft=4;spacingRight=4;overflow=hidden;rotatable=0;points=[[0,0.5],[1,0.5]];portConstraint=eastwest;fontColor=#000000;" parent="pY8bGKxmVO8cdruROGeC-6" vertex="1">
                    <mxGeometry y="26" width="200" height="26" as="geometry"/>
                </mxCell>
                <mxCell id="pY8bGKxmVO8cdruROGeC-8" value="f(2)" style="text;strokeColor=#36393d;fillColor=#cdeb8b;align=left;verticalAlign=top;spacingLeft=4;spacingRight=4;overflow=hidden;rotatable=0;points=[[0,0.5],[1,0.5]];portConstraint=eastwest;fontColor=#000000;" parent="pY8bGKxmVO8cdruROGeC-6" vertex="1">
                    <mxGeometry y="52" width="200" height="58" as="geometry"/>
                </mxCell>
                <mxCell id="pY8bGKxmVO8cdruROGeC-9" value="f(3)" style="text;strokeColor=#36393d;fillColor=#cdeb8b;align=left;verticalAlign=top;spacingLeft=4;spacingRight=4;overflow=hidden;rotatable=0;points=[[0,0.5],[1,0.5]];portConstraint=eastwest;fontColor=#000000;" parent="pY8bGKxmVO8cdruROGeC-6" vertex="1">
                    <mxGeometry y="110" width="200" height="190" as="geometry"/>
                </mxCell>
                <mxCell id="pY8bGKxmVO8cdruROGeC-10" style="edgeStyle=orthogonalEdgeStyle;html=1;fontColor=#000000;" parent="pY8bGKxmVO8cdruROGeC-1" source="pY8bGKxmVO8cdruROGeC-11" edge="1">
                    <mxGeometry relative="1" as="geometry">
                        <mxPoint x="1040" y="430" as="targetPoint"/>
                    </mxGeometry>
                </mxCell>
                <mxCell id="pY8bGKxmVO8cdruROGeC-11" value="Vista" style="swimlane;fontStyle=0;childLayout=stackLayout;horizontal=1;startSize=26;fillColor=#FFCCE6;horizontalStack=0;resizeParent=1;resizeParentMax=0;resizeLast=0;collapsible=1;marginBottom=0;strokeColor=#36393d;fontColor=#000000;" parent="pY8bGKxmVO8cdruROGeC-1" vertex="1">
                    <mxGeometry x="940" y="100" width="200" height="300" as="geometry"/>
                </mxCell>
                <mxCell id="pY8bGKxmVO8cdruROGeC-12" value="HTML 1" style="text;strokeColor=#36393d;fillColor=#FFCCE6;align=left;verticalAlign=top;spacingLeft=4;spacingRight=4;overflow=hidden;rotatable=0;points=[[0,0.5],[1,0.5]];portConstraint=eastwest;fontColor=#000000;" parent="pY8bGKxmVO8cdruROGeC-11" vertex="1">
                    <mxGeometry y="26" width="200" height="26" as="geometry"/>
                </mxCell>
                <mxCell id="pY8bGKxmVO8cdruROGeC-13" value="HTML 2" style="text;strokeColor=#36393d;fillColor=#FFCCE6;align=left;verticalAlign=top;spacingLeft=4;spacingRight=4;overflow=hidden;rotatable=0;points=[[0,0.5],[1,0.5]];portConstraint=eastwest;fontColor=#000000;" parent="pY8bGKxmVO8cdruROGeC-11" vertex="1">
                    <mxGeometry y="52" width="200" height="26" as="geometry"/>
                </mxCell>
                <mxCell id="pY8bGKxmVO8cdruROGeC-14" value="HTML 3" style="text;strokeColor=#36393d;fillColor=#FFCCE6;align=left;verticalAlign=top;spacingLeft=4;spacingRight=4;overflow=hidden;rotatable=0;points=[[0,0.5],[1,0.5]];portConstraint=eastwest;fontColor=#000000;" parent="pY8bGKxmVO8cdruROGeC-11" vertex="1">
                    <mxGeometry y="78" width="200" height="222" as="geometry"/>
                </mxCell>
                <mxCell id="pY8bGKxmVO8cdruROGeC-15" style="edgeStyle=orthogonalEdgeStyle;html=1;entryX=0;entryY=0.5;entryDx=0;entryDy=0;fontColor=#000000;" parent="pY8bGKxmVO8cdruROGeC-1" source="pY8bGKxmVO8cdruROGeC-16" target="pY8bGKxmVO8cdruROGeC-4" edge="1">
                    <mxGeometry relative="1" as="geometry">
                        <Array as="points">
                            <mxPoint x="30" y="220"/>
                            <mxPoint x="30" y="165"/>
                        </Array>
                    </mxGeometry>
                </mxCell>
                <mxCell id="pY8bGKxmVO8cdruROGeC-16" value="" style="image;html=1;image=img/lib/clip_art/computers/Database_128x128.png;fontColor=#000000;fillColor=#FFCCE6;" parent="pY8bGKxmVO8cdruROGeC-1" vertex="1">
                    <mxGeometry x="-90" y="190" width="80" height="80" as="geometry"/>
                </mxCell>
                <mxCell id="pY8bGKxmVO8cdruROGeC-17" value="" style="image;html=1;image=img/lib/clip_art/computers/Software_128x128.png;fontColor=#000000;fillColor=#FFCCE6;" parent="pY8bGKxmVO8cdruROGeC-1" vertex="1">
                    <mxGeometry x="570" y="46" width="80" height="80" as="geometry"/>
                </mxCell>
                <mxCell id="pY8bGKxmVO8cdruROGeC-18" value="Sus funciones contienen la sintaxys de SQL para realizar la conexión y las gestiones en la BBDD" style="ellipse;shape=cloud;whiteSpace=wrap;html=1;fillColor=#cce5ff;spacing=37;strokeColor=#36393d;fontColor=#000000;" parent="pY8bGKxmVO8cdruROGeC-1" vertex="1">
                    <mxGeometry x="90" y="-30" width="240" height="130" as="geometry"/>
                </mxCell>
                <mxCell id="pY8bGKxmVO8cdruROGeC-19" value="Sus funciones son para enseñar de la BBDD a la vista y recoger de la vista la info para guardarla en la BBDD" style="ellipse;shape=cloud;whiteSpace=wrap;html=1;fillColor=#cce5ff;spacing=37;strokeColor=#36393d;fontColor=#000000;" parent="pY8bGKxmVO8cdruROGeC-1" vertex="1">
                    <mxGeometry x="350" y="-30" width="240" height="130" as="geometry"/>
                </mxCell>
                <mxCell id="pY8bGKxmVO8cdruROGeC-20" value="Contiene la estructura HTML para enseñar y recoger info" style="ellipse;shape=cloud;whiteSpace=wrap;html=1;fillColor=#cce5ff;spacing=37;strokeColor=#36393d;fontColor=#000000;" parent="pY8bGKxmVO8cdruROGeC-1" vertex="1">
                    <mxGeometry x="920" y="-11" width="190" height="110" as="geometry"/>
                </mxCell>
                <mxCell id="pY8bGKxmVO8cdruROGeC-21" value="" style="image;html=1;image=img/lib/clip_art/computers/Monitor_128x128.png;fontColor=#000000;fillColor=#FFCCE6;" parent="pY8bGKxmVO8cdruROGeC-1" vertex="1">
                    <mxGeometry x="1090" y="30" width="95" height="80" as="geometry"/>
                </mxCell>
                <mxCell id="pY8bGKxmVO8cdruROGeC-22" value="Entrutador" style="swimlane;fontStyle=0;childLayout=stackLayout;horizontal=1;startSize=26;fillColor=#ffff88;horizontalStack=0;resizeParent=1;resizeParentMax=0;resizeLast=0;collapsible=1;marginBottom=0;strokeColor=#36393d;fontColor=#000000;" parent="pY8bGKxmVO8cdruROGeC-1" vertex="1">
                    <mxGeometry x="680" y="210" width="200" height="326" as="geometry"/>
                </mxCell>
                <mxCell id="pY8bGKxmVO8cdruROGeC-23" value="URL 1" style="text;strokeColor=#36393d;fillColor=#ffff88;align=left;verticalAlign=top;spacingLeft=4;spacingRight=4;overflow=hidden;rotatable=0;points=[[0,0.5],[1,0.5]];portConstraint=eastwest;fontColor=#000000;" parent="pY8bGKxmVO8cdruROGeC-22" vertex="1">
                    <mxGeometry y="26" width="200" height="26" as="geometry"/>
                </mxCell>
                <mxCell id="pY8bGKxmVO8cdruROGeC-24" value="URL 2" style="text;strokeColor=#36393d;fillColor=#ffff88;align=left;verticalAlign=top;spacingLeft=4;spacingRight=4;overflow=hidden;rotatable=0;points=[[0,0.5],[1,0.5]];portConstraint=eastwest;fontColor=#000000;" parent="pY8bGKxmVO8cdruROGeC-22" vertex="1">
                    <mxGeometry y="52" width="200" height="26" as="geometry"/>
                </mxCell>
                <mxCell id="pY8bGKxmVO8cdruROGeC-25" value="URL 3" style="text;strokeColor=#36393d;fillColor=#ffff88;align=left;verticalAlign=top;spacingLeft=4;spacingRight=4;overflow=hidden;rotatable=0;points=[[0,0.5],[1,0.5]];portConstraint=eastwest;fontColor=#000000;" parent="pY8bGKxmVO8cdruROGeC-22" vertex="1">
                    <mxGeometry y="78" width="200" height="26" as="geometry"/>
                </mxCell>
                <mxCell id="pY8bGKxmVO8cdruROGeC-26" value="URL 4" style="text;strokeColor=#36393d;fillColor=#ffff88;align=left;verticalAlign=top;spacingLeft=4;spacingRight=4;overflow=hidden;rotatable=0;points=[[0,0.5],[1,0.5]];portConstraint=eastwest;fontColor=#000000;" parent="pY8bGKxmVO8cdruROGeC-22" vertex="1">
                    <mxGeometry y="104" width="200" height="222" as="geometry"/>
                </mxCell>
                <mxCell id="pY8bGKxmVO8cdruROGeC-27" value="" style="image;html=1;image=img/lib/clip_art/networking/Router_Icon_128x128.png;fontColor=#000000;fillColor=#000000;" parent="pY8bGKxmVO8cdruROGeC-1" vertex="1">
                    <mxGeometry x="835" y="450" width="100" height="60" as="geometry"/>
                </mxCell>
                <mxCell id="pY8bGKxmVO8cdruROGeC-28" value="Gestiona las vistas a mostrar según el nombre de la URL.&lt;br&gt;Sus funciones contienen el controlador que se va a disparar al poner una URL en concreto y el controlador será el que enseñe la vista.&lt;br&gt;El enrutador también puede enseñar directamente la vista" style="ellipse;shape=cloud;whiteSpace=wrap;html=1;fillColor=#cce5ff;spacing=37;strokeColor=#36393d;fontColor=#000000;" parent="pY8bGKxmVO8cdruROGeC-1" vertex="1">
                    <mxGeometry x="500" y="480" width="410" height="190" as="geometry"/>
                </mxCell>
                <mxCell id="pY8bGKxmVO8cdruROGeC-29" style="edgeStyle=none;html=1;entryX=1;entryY=0.5;entryDx=0;entryDy=0;fontColor=#000000;" parent="pY8bGKxmVO8cdruROGeC-1" source="pY8bGKxmVO8cdruROGeC-7" target="pY8bGKxmVO8cdruROGeC-3" edge="1">
                    <mxGeometry relative="1" as="geometry"/>
                </mxCell>
                <mxCell id="pY8bGKxmVO8cdruROGeC-30" style="edgeStyle=orthogonalEdgeStyle;html=1;fontColor=#000000;entryX=0;entryY=0.5;entryDx=0;entryDy=0;" parent="pY8bGKxmVO8cdruROGeC-1" source="pY8bGKxmVO8cdruROGeC-4" target="pY8bGKxmVO8cdruROGeC-8" edge="1">
                    <mxGeometry relative="1" as="geometry">
                        <mxPoint x="411" y="190" as="targetPoint"/>
                        <Array as="points">
                            <mxPoint x="345" y="165"/>
                            <mxPoint x="345" y="181"/>
                        </Array>
                    </mxGeometry>
                </mxCell>
                <mxCell id="pY8bGKxmVO8cdruROGeC-31" style="edgeStyle=orthogonalEdgeStyle;html=1;entryX=1;entryY=0.5;entryDx=0;entryDy=0;fontColor=#000000;fillColor=#f8cecc;strokeColor=#b85450;gradientColor=#ea6b66;" parent="pY8bGKxmVO8cdruROGeC-1" source="pY8bGKxmVO8cdruROGeC-23" target="pY8bGKxmVO8cdruROGeC-7" edge="1">
                    <mxGeometry relative="1" as="geometry">
                        <Array as="points">
                            <mxPoint x="660" y="249"/>
                            <mxPoint x="660" y="139"/>
                        </Array>
                    </mxGeometry>
                </mxCell>
                <mxCell id="pY8bGKxmVO8cdruROGeC-32" style="edgeStyle=orthogonalEdgeStyle;html=1;entryX=-0.006;entryY=0.064;entryDx=0;entryDy=0;entryPerimeter=0;fontColor=#000000;fillColor=#f8cecc;gradientColor=#ea6b66;strokeColor=#b85450;" parent="pY8bGKxmVO8cdruROGeC-1" source="pY8bGKxmVO8cdruROGeC-25" target="pY8bGKxmVO8cdruROGeC-14" edge="1">
                    <mxGeometry relative="1" as="geometry">
                        <Array as="points">
                            <mxPoint x="920" y="301"/>
                            <mxPoint x="920" y="192"/>
                        </Array>
                    </mxGeometry>
                </mxCell>
                <mxCell id="pY8bGKxmVO8cdruROGeC-33" style="edgeStyle=orthogonalEdgeStyle;html=1;fontColor=#000000;fillColor=#f8cecc;gradientColor=#ea6b66;strokeColor=#b85450;" parent="pY8bGKxmVO8cdruROGeC-1" source="pY8bGKxmVO8cdruROGeC-12" target="pY8bGKxmVO8cdruROGeC-23" edge="1">
                    <mxGeometry relative="1" as="geometry"/>
                </mxCell>
                <mxCell id="pY8bGKxmVO8cdruROGeC-34" style="edgeStyle=orthogonalEdgeStyle;html=1;entryX=0;entryY=0.5;entryDx=0;entryDy=0;fontColor=#000000;" parent="pY8bGKxmVO8cdruROGeC-1" target="pY8bGKxmVO8cdruROGeC-13" edge="1">
                    <mxGeometry relative="1" as="geometry">
                        <mxPoint x="612" y="190" as="sourcePoint"/>
                        <Array as="points">
                            <mxPoint x="612" y="190"/>
                            <mxPoint x="775" y="190"/>
                            <mxPoint x="775" y="165"/>
                        </Array>
                    </mxGeometry>
                </mxCell>
                <mxCell id="pY8bGKxmVO8cdruROGeC-35" style="edgeStyle=orthogonalEdgeStyle;html=1;fontColor=#000000;fillColor=#f8cecc;gradientColor=#ea6b66;strokeColor=#b85450;" parent="pY8bGKxmVO8cdruROGeC-1" source="pY8bGKxmVO8cdruROGeC-24" edge="1">
                    <mxGeometry relative="1" as="geometry">
                        <mxPoint x="410" y="160" as="targetPoint"/>
                        <Array as="points">
                            <mxPoint x="650" y="275"/>
                            <mxPoint x="650" y="420"/>
                            <mxPoint x="370" y="420"/>
                            <mxPoint x="370" y="160"/>
                        </Array>
                    </mxGeometry>
                </mxCell>
                <mxCell id="pY8bGKxmVO8cdruROGeC-36" value="" style="image;html=1;image=img/lib/clip_art/computers/Database_Add_128x128.png;fontColor=#000000;fillColor=#000000;" parent="pY8bGKxmVO8cdruROGeC-1" vertex="1">
                    <mxGeometry x="-90" y="99" width="80" height="80" as="geometry"/>
                </mxCell>
                <mxCell id="pY8bGKxmVO8cdruROGeC-37" style="edgeStyle=orthogonalEdgeStyle;html=1;entryX=1;entryY=0.5;entryDx=0;entryDy=0;fontColor=#000000;" parent="pY8bGKxmVO8cdruROGeC-1" source="pY8bGKxmVO8cdruROGeC-3" target="pY8bGKxmVO8cdruROGeC-36" edge="1">
                    <mxGeometry relative="1" as="geometry"/>
                </mxCell>
                <mxCell id="pY8bGKxmVO8cdruROGeC-38" value="" style="image;html=1;image=img/lib/clip_art/computers/Data_Filtering_128x128.png;fontColor=#000000;fillColor=#000000;" parent="pY8bGKxmVO8cdruROGeC-1" vertex="1">
                    <mxGeometry x="40" y="46" width="80" height="80" as="geometry"/>
                </mxCell>
                <mxCell id="pY8bGKxmVO8cdruROGeC-39" style="edgeStyle=orthogonalEdgeStyle;html=1;entryX=1;entryY=0.5;entryDx=0;entryDy=0;fontColor=#000000;" parent="pY8bGKxmVO8cdruROGeC-1" source="pY8bGKxmVO8cdruROGeC-40" target="pY8bGKxmVO8cdruROGeC-27" edge="1">
                    <mxGeometry relative="1" as="geometry"/>
                </mxCell>
                <mxCell id="pY8bGKxmVO8cdruROGeC-41" style="edgeStyle=orthogonalEdgeStyle;html=1;fontColor=#000000;entryX=1;entryY=0.5;entryDx=0;entryDy=0;" parent="pY8bGKxmVO8cdruROGeC-1" source="pY8bGKxmVO8cdruROGeC-40" target="pY8bGKxmVO8cdruROGeC-12" edge="1">
                    <mxGeometry relative="1" as="geometry">
                        <mxPoint x="1110" y="410" as="targetPoint"/>
                        <Array as="points">
                            <mxPoint x="1180" y="480"/>
                            <mxPoint x="1180" y="139"/>
                        </Array>
                    </mxGeometry>
                </mxCell>
                <mxCell id="pY8bGKxmVO8cdruROGeC-40" value="" style="shape=mxgraph.cisco.people.androgenous_person;html=1;pointerEvents=1;dashed=0;fillColor=#036897;strokeColor=#ffffff;strokeWidth=2;verticalLabelPosition=bottom;verticalAlign=top;align=center;outlineConnect=0;fontColor=#000000;" parent="pY8bGKxmVO8cdruROGeC-1" vertex="1">
                    <mxGeometry x="1000" y="439" width="69" height="82" as="geometry"/>
                </mxCell>
            </root>
        </mxGraphModel>
    </diagram>
    <diagram name="Copy of Laravel-tutorial" id="I4kZ25vj1AqqaE-SE4q8">
        <mxGraphModel dx="1840" dy="1675" grid="1" gridSize="10" guides="1" tooltips="1" connect="1" arrows="1" fold="1" page="1" pageScale="1" pageWidth="850" pageHeight="1100" math="0" shadow="0">
            <root>
                <mxCell id="Yx-JvAZ4mrIXwXXHGU9t-0"/>
                <mxCell id="Yx-JvAZ4mrIXwXXHGU9t-1" parent="Yx-JvAZ4mrIXwXXHGU9t-0"/>
                <mxCell id="Yx-JvAZ4mrIXwXXHGU9t-2" value="Modelo" style="swimlane;fontStyle=0;childLayout=stackLayout;horizontal=1;startSize=26;fillColor=#ffcc99;horizontalStack=0;resizeParent=1;resizeParentMax=0;resizeLast=0;collapsible=1;marginBottom=0;strokeColor=#36393d;fontColor=#000000;" parent="Yx-JvAZ4mrIXwXXHGU9t-1" vertex="1">
                    <mxGeometry x="80" y="100" width="200" height="300" as="geometry"/>
                </mxCell>
                <mxCell id="Yx-JvAZ4mrIXwXXHGU9t-3" value="SQL 1" style="text;strokeColor=#36393d;fillColor=#ffcc99;align=left;verticalAlign=top;spacingLeft=4;spacingRight=4;overflow=hidden;rotatable=0;points=[[0,0.5],[1,0.5]];portConstraint=eastwest;fontColor=#000000;" parent="Yx-JvAZ4mrIXwXXHGU9t-2" vertex="1">
                    <mxGeometry y="26" width="200" height="26" as="geometry"/>
                </mxCell>
                <mxCell id="Yx-JvAZ4mrIXwXXHGU9t-4" value="SQL 2" style="text;strokeColor=#36393d;fillColor=#ffcc99;align=left;verticalAlign=top;spacingLeft=4;spacingRight=4;overflow=hidden;rotatable=0;points=[[0,0.5],[1,0.5]];portConstraint=eastwest;fontColor=#000000;" parent="Yx-JvAZ4mrIXwXXHGU9t-2" vertex="1">
                    <mxGeometry y="52" width="200" height="26" as="geometry"/>
                </mxCell>
                <mxCell id="Yx-JvAZ4mrIXwXXHGU9t-5" value="SQL 3" style="text;strokeColor=#36393d;fillColor=#ffcc99;align=left;verticalAlign=top;spacingLeft=4;spacingRight=4;overflow=hidden;rotatable=0;points=[[0,0.5],[1,0.5]];portConstraint=eastwest;fontColor=#000000;" parent="Yx-JvAZ4mrIXwXXHGU9t-2" vertex="1">
                    <mxGeometry y="78" width="200" height="222" as="geometry"/>
                </mxCell>
                <mxCell id="Yx-JvAZ4mrIXwXXHGU9t-6" value="Controlador" style="swimlane;fontStyle=0;childLayout=stackLayout;horizontal=1;startSize=26;fillColor=#cdeb8b;horizontalStack=0;resizeParent=1;resizeParentMax=0;resizeLast=0;collapsible=1;marginBottom=0;strokeColor=#36393d;fontColor=#000000;" parent="Yx-JvAZ4mrIXwXXHGU9t-1" vertex="1">
                    <mxGeometry x="410" y="100" width="200" height="300" as="geometry"/>
                </mxCell>
                <mxCell id="Yx-JvAZ4mrIXwXXHGU9t-7" value="f(1)" style="text;strokeColor=#36393d;fillColor=#cdeb8b;align=left;verticalAlign=top;spacingLeft=4;spacingRight=4;overflow=hidden;rotatable=0;points=[[0,0.5],[1,0.5]];portConstraint=eastwest;fontColor=#000000;" parent="Yx-JvAZ4mrIXwXXHGU9t-6" vertex="1">
                    <mxGeometry y="26" width="200" height="26" as="geometry"/>
                </mxCell>
                <mxCell id="Yx-JvAZ4mrIXwXXHGU9t-8" value="f(2)" style="text;strokeColor=#36393d;fillColor=#cdeb8b;align=left;verticalAlign=top;spacingLeft=4;spacingRight=4;overflow=hidden;rotatable=0;points=[[0,0.5],[1,0.5]];portConstraint=eastwest;fontColor=#000000;" parent="Yx-JvAZ4mrIXwXXHGU9t-6" vertex="1">
                    <mxGeometry y="52" width="200" height="58" as="geometry"/>
                </mxCell>
                <mxCell id="Yx-JvAZ4mrIXwXXHGU9t-9" value="f(3)" style="text;strokeColor=#36393d;fillColor=#cdeb8b;align=left;verticalAlign=top;spacingLeft=4;spacingRight=4;overflow=hidden;rotatable=0;points=[[0,0.5],[1,0.5]];portConstraint=eastwest;fontColor=#000000;" parent="Yx-JvAZ4mrIXwXXHGU9t-6" vertex="1">
                    <mxGeometry y="110" width="200" height="190" as="geometry"/>
                </mxCell>
                <mxCell id="Yx-JvAZ4mrIXwXXHGU9t-10" style="edgeStyle=orthogonalEdgeStyle;html=1;fontColor=#000000;" parent="Yx-JvAZ4mrIXwXXHGU9t-1" source="Yx-JvAZ4mrIXwXXHGU9t-11" edge="1">
                    <mxGeometry relative="1" as="geometry">
                        <mxPoint x="1040" y="430" as="targetPoint"/>
                    </mxGeometry>
                </mxCell>
                <mxCell id="Yx-JvAZ4mrIXwXXHGU9t-11" value="Vista" style="swimlane;fontStyle=0;childLayout=stackLayout;horizontal=1;startSize=26;fillColor=#FFCCE6;horizontalStack=0;resizeParent=1;resizeParentMax=0;resizeLast=0;collapsible=1;marginBottom=0;strokeColor=#36393d;fontColor=#000000;" parent="Yx-JvAZ4mrIXwXXHGU9t-1" vertex="1">
                    <mxGeometry x="940" y="100" width="200" height="280" as="geometry"/>
                </mxCell>
                <mxCell id="Yx-JvAZ4mrIXwXXHGU9t-12" value="HTML 1" style="text;strokeColor=#36393d;fillColor=#FFCCE6;align=left;verticalAlign=top;spacingLeft=4;spacingRight=4;overflow=hidden;rotatable=0;points=[[0,0.5],[1,0.5]];portConstraint=eastwest;fontColor=#000000;" parent="Yx-JvAZ4mrIXwXXHGU9t-11" vertex="1">
                    <mxGeometry y="26" width="200" height="26" as="geometry"/>
                </mxCell>
                <mxCell id="Yx-JvAZ4mrIXwXXHGU9t-14" value="HTML 3" style="text;strokeColor=#36393d;fillColor=#FFCCE6;align=left;verticalAlign=top;spacingLeft=4;spacingRight=4;overflow=hidden;rotatable=0;points=[[0,0.5],[1,0.5]];portConstraint=eastwest;fontColor=#000000;" parent="Yx-JvAZ4mrIXwXXHGU9t-11" vertex="1">
                    <mxGeometry y="52" width="200" height="202" as="geometry"/>
                </mxCell>
                <mxCell id="Yx-JvAZ4mrIXwXXHGU9t-13" value="HTML 2" style="text;strokeColor=#36393d;fillColor=#FFCCE6;align=left;verticalAlign=top;spacingLeft=4;spacingRight=4;overflow=hidden;rotatable=0;points=[[0,0.5],[1,0.5]];portConstraint=eastwest;fontColor=#000000;" parent="Yx-JvAZ4mrIXwXXHGU9t-11" vertex="1">
                    <mxGeometry y="254" width="200" height="26" as="geometry"/>
                </mxCell>
                <mxCell id="Yx-JvAZ4mrIXwXXHGU9t-15" style="edgeStyle=orthogonalEdgeStyle;html=1;entryX=0;entryY=0.5;entryDx=0;entryDy=0;fontColor=#000000;" parent="Yx-JvAZ4mrIXwXXHGU9t-1" source="Yx-JvAZ4mrIXwXXHGU9t-16" target="Yx-JvAZ4mrIXwXXHGU9t-4" edge="1">
                    <mxGeometry relative="1" as="geometry">
                        <Array as="points">
                            <mxPoint x="30" y="220"/>
                            <mxPoint x="30" y="165"/>
                        </Array>
                    </mxGeometry>
                </mxCell>
                <mxCell id="Yx-JvAZ4mrIXwXXHGU9t-16" value="" style="image;html=1;image=img/lib/clip_art/computers/Database_128x128.png;fontColor=#000000;fillColor=#FFCCE6;" parent="Yx-JvAZ4mrIXwXXHGU9t-1" vertex="1">
                    <mxGeometry x="-90" y="200" width="80" height="80" as="geometry"/>
                </mxCell>
                <mxCell id="Yx-JvAZ4mrIXwXXHGU9t-17" value="" style="image;html=1;image=img/lib/clip_art/computers/Software_128x128.png;fontColor=#000000;fillColor=#FFCCE6;" parent="Yx-JvAZ4mrIXwXXHGU9t-1" vertex="1">
                    <mxGeometry x="570" y="46" width="80" height="80" as="geometry"/>
                </mxCell>
                <mxCell id="Yx-JvAZ4mrIXwXXHGU9t-21" value="" style="image;html=1;image=img/lib/clip_art/computers/Monitor_128x128.png;fontColor=#000000;fillColor=#FFCCE6;" parent="Yx-JvAZ4mrIXwXXHGU9t-1" vertex="1">
                    <mxGeometry x="1090" y="30" width="95" height="80" as="geometry"/>
                </mxCell>
                <mxCell id="Yx-JvAZ4mrIXwXXHGU9t-22" value="Entrutador" style="swimlane;fontStyle=0;childLayout=stackLayout;horizontal=1;startSize=26;fillColor=#ffff88;horizontalStack=0;resizeParent=1;resizeParentMax=0;resizeLast=0;collapsible=1;marginBottom=0;strokeColor=#36393d;fontColor=#000000;" parent="Yx-JvAZ4mrIXwXXHGU9t-1" vertex="1">
                    <mxGeometry x="680" y="210" width="200" height="326" as="geometry"/>
                </mxCell>
                <mxCell id="Yx-JvAZ4mrIXwXXHGU9t-23" value="URL 1" style="text;strokeColor=#36393d;fillColor=#ffff88;align=left;verticalAlign=top;spacingLeft=4;spacingRight=4;overflow=hidden;rotatable=0;points=[[0,0.5],[1,0.5]];portConstraint=eastwest;fontColor=#000000;" parent="Yx-JvAZ4mrIXwXXHGU9t-22" vertex="1">
                    <mxGeometry y="26" width="200" height="26" as="geometry"/>
                </mxCell>
                <mxCell id="Yx-JvAZ4mrIXwXXHGU9t-24" value="URL 2" style="text;strokeColor=#36393d;fillColor=#ffff88;align=left;verticalAlign=top;spacingLeft=4;spacingRight=4;overflow=hidden;rotatable=0;points=[[0,0.5],[1,0.5]];portConstraint=eastwest;fontColor=#000000;" parent="Yx-JvAZ4mrIXwXXHGU9t-22" vertex="1">
                    <mxGeometry y="52" width="200" height="26" as="geometry"/>
                </mxCell>
                <mxCell id="Yx-JvAZ4mrIXwXXHGU9t-25" value="URL 3" style="text;strokeColor=#36393d;fillColor=#ffff88;align=left;verticalAlign=top;spacingLeft=4;spacingRight=4;overflow=hidden;rotatable=0;points=[[0,0.5],[1,0.5]];portConstraint=eastwest;fontColor=#000000;" parent="Yx-JvAZ4mrIXwXXHGU9t-22" vertex="1">
                    <mxGeometry y="78" width="200" height="26" as="geometry"/>
                </mxCell>
                <mxCell id="Yx-JvAZ4mrIXwXXHGU9t-26" value="URL 4" style="text;strokeColor=#36393d;fillColor=#ffff88;align=left;verticalAlign=top;spacingLeft=4;spacingRight=4;overflow=hidden;rotatable=0;points=[[0,0.5],[1,0.5]];portConstraint=eastwest;fontColor=#000000;" parent="Yx-JvAZ4mrIXwXXHGU9t-22" vertex="1">
                    <mxGeometry y="104" width="200" height="222" as="geometry"/>
                </mxCell>
                <mxCell id="Yx-JvAZ4mrIXwXXHGU9t-27" value="" style="image;html=1;image=img/lib/clip_art/networking/Router_Icon_128x128.png;fontColor=#000000;fillColor=#000000;" parent="Yx-JvAZ4mrIXwXXHGU9t-1" vertex="1">
                    <mxGeometry x="835" y="450" width="100" height="60" as="geometry"/>
                </mxCell>
                <mxCell id="Yx-JvAZ4mrIXwXXHGU9t-29" style="edgeStyle=none;html=1;entryX=1;entryY=0.5;entryDx=0;entryDy=0;fontColor=#000000;" parent="Yx-JvAZ4mrIXwXXHGU9t-1" source="Yx-JvAZ4mrIXwXXHGU9t-7" target="Yx-JvAZ4mrIXwXXHGU9t-3" edge="1">
                    <mxGeometry relative="1" as="geometry"/>
                </mxCell>
                <mxCell id="Yx-JvAZ4mrIXwXXHGU9t-30" style="edgeStyle=orthogonalEdgeStyle;html=1;fontColor=#000000;entryX=0;entryY=0.5;entryDx=0;entryDy=0;" parent="Yx-JvAZ4mrIXwXXHGU9t-1" source="Yx-JvAZ4mrIXwXXHGU9t-4" target="Yx-JvAZ4mrIXwXXHGU9t-8" edge="1">
                    <mxGeometry relative="1" as="geometry">
                        <mxPoint x="411" y="190" as="targetPoint"/>
                        <Array as="points">
                            <mxPoint x="345" y="165"/>
                            <mxPoint x="345" y="181"/>
                        </Array>
                    </mxGeometry>
                </mxCell>
                <mxCell id="Yx-JvAZ4mrIXwXXHGU9t-31" style="edgeStyle=orthogonalEdgeStyle;html=1;entryX=1;entryY=0.5;entryDx=0;entryDy=0;fontColor=#000000;fillColor=#f8cecc;strokeColor=#b85450;gradientColor=#ea6b66;" parent="Yx-JvAZ4mrIXwXXHGU9t-1" source="Yx-JvAZ4mrIXwXXHGU9t-23" target="Yx-JvAZ4mrIXwXXHGU9t-7" edge="1">
                    <mxGeometry relative="1" as="geometry">
                        <Array as="points">
                            <mxPoint x="660" y="249"/>
                            <mxPoint x="660" y="139"/>
                        </Array>
                    </mxGeometry>
                </mxCell>
                <mxCell id="Yx-JvAZ4mrIXwXXHGU9t-32" style="edgeStyle=orthogonalEdgeStyle;html=1;entryX=-0.006;entryY=0.064;entryDx=0;entryDy=0;entryPerimeter=0;fontColor=#000000;fillColor=#f8cecc;gradientColor=#ea6b66;strokeColor=#b85450;" parent="Yx-JvAZ4mrIXwXXHGU9t-1" source="Yx-JvAZ4mrIXwXXHGU9t-25" target="Yx-JvAZ4mrIXwXXHGU9t-14" edge="1">
                    <mxGeometry relative="1" as="geometry">
                        <Array as="points">
                            <mxPoint x="920" y="301"/>
                            <mxPoint x="920" y="191"/>
                        </Array>
                    </mxGeometry>
                </mxCell>
                <mxCell id="Yx-JvAZ4mrIXwXXHGU9t-33" style="edgeStyle=orthogonalEdgeStyle;html=1;fontColor=#000000;fillColor=#f8cecc;gradientColor=#ea6b66;strokeColor=#b85450;" parent="Yx-JvAZ4mrIXwXXHGU9t-1" source="Yx-JvAZ4mrIXwXXHGU9t-12" target="Yx-JvAZ4mrIXwXXHGU9t-23" edge="1">
                    <mxGeometry relative="1" as="geometry"/>
                </mxCell>
                <mxCell id="Yx-JvAZ4mrIXwXXHGU9t-34" style="edgeStyle=orthogonalEdgeStyle;html=1;entryX=0;entryY=0.5;entryDx=0;entryDy=0;fontColor=#000000;" parent="Yx-JvAZ4mrIXwXXHGU9t-1" target="Yx-JvAZ4mrIXwXXHGU9t-13" edge="1">
                    <mxGeometry relative="1" as="geometry">
                        <mxPoint x="612" y="190" as="sourcePoint"/>
                        <Array as="points">
                            <mxPoint x="612" y="190"/>
                            <mxPoint x="775" y="190"/>
                            <mxPoint x="775" y="165"/>
                        </Array>
                    </mxGeometry>
                </mxCell>
                <mxCell id="Yx-JvAZ4mrIXwXXHGU9t-35" style="edgeStyle=orthogonalEdgeStyle;html=1;fontColor=#000000;fillColor=#f8cecc;gradientColor=#ea6b66;strokeColor=#b85450;" parent="Yx-JvAZ4mrIXwXXHGU9t-1" source="Yx-JvAZ4mrIXwXXHGU9t-24" edge="1">
                    <mxGeometry relative="1" as="geometry">
                        <mxPoint x="410" y="160" as="targetPoint"/>
                        <Array as="points">
                            <mxPoint x="650" y="275"/>
                            <mxPoint x="650" y="500"/>
                            <mxPoint x="370" y="500"/>
                            <mxPoint x="370" y="160"/>
                        </Array>
                    </mxGeometry>
                </mxCell>
                <mxCell id="Yx-JvAZ4mrIXwXXHGU9t-36" value="" style="image;html=1;image=img/lib/clip_art/computers/Database_Add_128x128.png;fontColor=#000000;fillColor=#000000;" parent="Yx-JvAZ4mrIXwXXHGU9t-1" vertex="1">
                    <mxGeometry x="-90" y="99" width="80" height="80" as="geometry"/>
                </mxCell>
                <mxCell id="Yx-JvAZ4mrIXwXXHGU9t-37" style="edgeStyle=orthogonalEdgeStyle;html=1;entryX=1;entryY=0.5;entryDx=0;entryDy=0;fontColor=#000000;" parent="Yx-JvAZ4mrIXwXXHGU9t-1" source="Yx-JvAZ4mrIXwXXHGU9t-3" target="Yx-JvAZ4mrIXwXXHGU9t-36" edge="1">
                    <mxGeometry relative="1" as="geometry"/>
                </mxCell>
                <mxCell id="Yx-JvAZ4mrIXwXXHGU9t-38" value="" style="image;html=1;image=img/lib/clip_art/computers/Data_Filtering_128x128.png;fontColor=#000000;fillColor=#000000;" parent="Yx-JvAZ4mrIXwXXHGU9t-1" vertex="1">
                    <mxGeometry x="40" y="46" width="80" height="80" as="geometry"/>
                </mxCell>
                <mxCell id="Yx-JvAZ4mrIXwXXHGU9t-39" style="edgeStyle=orthogonalEdgeStyle;html=1;entryX=1;entryY=0.5;entryDx=0;entryDy=0;fontColor=#000000;" parent="Yx-JvAZ4mrIXwXXHGU9t-1" source="Yx-JvAZ4mrIXwXXHGU9t-41" target="Yx-JvAZ4mrIXwXXHGU9t-27" edge="1">
                    <mxGeometry relative="1" as="geometry"/>
                </mxCell>
                <mxCell id="Yx-JvAZ4mrIXwXXHGU9t-40" style="edgeStyle=orthogonalEdgeStyle;html=1;fontColor=#000000;entryX=1;entryY=0.5;entryDx=0;entryDy=0;" parent="Yx-JvAZ4mrIXwXXHGU9t-1" source="Yx-JvAZ4mrIXwXXHGU9t-41" target="Yx-JvAZ4mrIXwXXHGU9t-12" edge="1">
                    <mxGeometry relative="1" as="geometry">
                        <mxPoint x="1110" y="410" as="targetPoint"/>
                        <Array as="points">
                            <mxPoint x="1180" y="480"/>
                            <mxPoint x="1180" y="139"/>
                        </Array>
                    </mxGeometry>
                </mxCell>
                <mxCell id="Yx-JvAZ4mrIXwXXHGU9t-41" value="" style="shape=mxgraph.cisco.people.androgenous_person;html=1;pointerEvents=1;dashed=0;fillColor=#036897;strokeColor=#ffffff;strokeWidth=2;verticalLabelPosition=bottom;verticalAlign=top;align=center;outlineConnect=0;fontColor=#000000;" parent="Yx-JvAZ4mrIXwXXHGU9t-1" vertex="1">
                    <mxGeometry x="1000" y="439" width="69" height="82" as="geometry"/>
                </mxCell>
                <mxCell id="O58OTKj1E1_td-xyel7--1" value="app/Http/Models/" style="rounded=0;whiteSpace=wrap;html=1;fillColor=#ffe6cc;strokeColor=#d79b00;fontColor=#000000;" parent="Yx-JvAZ4mrIXwXXHGU9t-1" vertex="1">
                    <mxGeometry x="80" y="400" width="200" height="30" as="geometry"/>
                </mxCell>
                <mxCell id="O58OTKj1E1_td-xyel7--0" value="" style="image;html=1;image=img/lib/clip_art/general/Full_Folder_128x128.png;fontColor=#000000;fillColor=#000000;" parent="Yx-JvAZ4mrIXwXXHGU9t-1" vertex="1">
                    <mxGeometry x="45" y="420" width="70" height="60" as="geometry"/>
                </mxCell>
                <mxCell id="O58OTKj1E1_td-xyel7--2" value="app/Http/Controllers/" style="rounded=0;whiteSpace=wrap;html=1;fillColor=#ffe6cc;strokeColor=#d79b00;fontColor=#000000;" parent="Yx-JvAZ4mrIXwXXHGU9t-1" vertex="1">
                    <mxGeometry x="410" y="400" width="200" height="30" as="geometry"/>
                </mxCell>
                <mxCell id="O58OTKj1E1_td-xyel7--3" value="" style="image;html=1;image=img/lib/clip_art/general/Full_Folder_128x128.png;fontColor=#000000;fillColor=#000000;" parent="Yx-JvAZ4mrIXwXXHGU9t-1" vertex="1">
                    <mxGeometry x="375" y="420" width="70" height="60" as="geometry"/>
                </mxCell>
                <mxCell id="O58OTKj1E1_td-xyel7--4" value="routes/web.php" style="rounded=0;whiteSpace=wrap;html=1;fillColor=#ffe6cc;strokeColor=#d79b00;fontColor=#000000;" parent="Yx-JvAZ4mrIXwXXHGU9t-1" vertex="1">
                    <mxGeometry x="680" y="536" width="200" height="30" as="geometry"/>
                </mxCell>
                <mxCell id="O58OTKj1E1_td-xyel7--5" value="" style="image;html=1;image=img/lib/clip_art/general/Full_Folder_128x128.png;fontColor=#000000;fillColor=#000000;" parent="Yx-JvAZ4mrIXwXXHGU9t-1" vertex="1">
                    <mxGeometry x="645" y="556" width="70" height="60" as="geometry"/>
                </mxCell>
                <mxCell id="O58OTKj1E1_td-xyel7--6" value="resources/views/" style="rounded=0;whiteSpace=wrap;html=1;fillColor=#ffe6cc;strokeColor=#d79b00;fontColor=#000000;" parent="Yx-JvAZ4mrIXwXXHGU9t-1" vertex="1">
                    <mxGeometry x="940" y="380" width="200" height="30" as="geometry"/>
                </mxCell>
                <mxCell id="O58OTKj1E1_td-xyel7--7" value="" style="image;html=1;image=img/lib/clip_art/general/Full_Folder_128x128.png;fontColor=#000000;fillColor=#000000;" parent="Yx-JvAZ4mrIXwXXHGU9t-1" vertex="1">
                    <mxGeometry x="910" y="390" width="70" height="60" as="geometry"/>
                </mxCell>
                <mxCell id="EJNhITaHxsGreKPZ82o0-0" value="Sus funciones son para enseñar de la BBDD a la vista y recoger de la vista la info para guardarla en la BBDD" style="ellipse;shape=cloud;whiteSpace=wrap;html=1;fillColor=#cce5ff;spacing=37;strokeColor=#36393d;fontColor=#000000;" parent="Yx-JvAZ4mrIXwXXHGU9t-1" vertex="1">
                    <mxGeometry x="350" y="-30" width="240" height="130" as="geometry"/>
                </mxCell>
                <mxCell id="eeR0vSfXN5gxJnGdf4FY-0" value="Sus funciones contienen la sintaxys de SQL para realizar la conexión y las gestiones en la BBDD" style="ellipse;shape=cloud;whiteSpace=wrap;html=1;fillColor=#cce5ff;spacing=37;strokeColor=#36393d;fontColor=#000000;" parent="Yx-JvAZ4mrIXwXXHGU9t-1" vertex="1">
                    <mxGeometry x="90" y="-30" width="240" height="130" as="geometry"/>
                </mxCell>
                <mxCell id="Cd4_Ey6vgWwB0STbG9sA-0" value="Contiene la estructura HTML para enseñar y recoger info" style="ellipse;shape=cloud;whiteSpace=wrap;html=1;fillColor=#cce5ff;spacing=37;strokeColor=#36393d;fontColor=#000000;" parent="Yx-JvAZ4mrIXwXXHGU9t-1" vertex="1">
                    <mxGeometry x="920" y="-11" width="190" height="110" as="geometry"/>
                </mxCell>
                <mxCell id="2wpdT79Ug0jZ5sA_SFMG-0" value="Gestiona las vistas a mostrar según el nombre de la URL.&lt;br&gt;Sus funciones contienen el controlador que se va a disparar al poner una URL en concreto y el controlador será el que enseñe la vista.&lt;br&gt;El enrutador también puede enseñar directamente la vista" style="ellipse;shape=cloud;whiteSpace=wrap;html=1;fillColor=#cce5ff;spacing=37;strokeColor=#36393d;fontColor=#000000;" parent="Yx-JvAZ4mrIXwXXHGU9t-1" vertex="1">
                    <mxGeometry x="730" y="520" width="410" height="190" as="geometry"/>
                </mxCell>
            </root>
        </mxGraphModel>
    </diagram>
</mxfile>